<?xml version="1.0" ?><svg height="64" preserveAspectRatio="xMidYMid" viewBox="0 0 49 64" width="49" xmlns="http://www.w3.org/2000/svg" xmlns:xlink="http://www.w3.org/1999/xlink"><defs><style>
      .cls-1 {
        fill: #838383;
      }

      .cls-1, .cls-2, .cls-3 {
        fill-rule: evenodd;
      }

      .cls-2 {
        fill: #fff;
      }

      .cls-3 {
        fill: #bcbcbc;
      }
    </style></defs><g><path class="cls-1" d="M49.000,16.842 L49.000,58.947 C49.000,61.738 46.730,64.000 43.931,64.000 L5.069,64.000 C2.269,64.000 -0.000,61.738 -0.000,58.947 L-0.000,5.053 C-0.000,2.262 2.269,-0.000 5.069,-0.000 L32.103,-0.000 L49.000,16.842 Z"/><path class="cls-2" d="M34.709,34.382 C34.491,34.557 34.158,34.644 33.711,34.644 C33.215,34.644 32.877,34.542 32.699,34.337 C32.520,34.132 32.431,33.839 32.431,33.459 C32.431,33.037 32.528,32.734 32.721,32.550 C32.915,32.366 33.245,32.274 33.711,32.274 C34.183,32.274 34.521,32.363 34.727,32.541 C34.933,32.719 35.036,33.025 35.036,33.459 C35.036,33.900 34.927,34.207 34.709,34.382 ZM25.797,45.536 L22.421,36.047 L24.817,36.047 L26.931,42.297 L29.037,36.047 L31.378,36.047 L27.957,45.536 L25.797,45.536 ZM19.144,44.550 C18.218,45.394 17.226,45.816 16.167,45.816 C15.115,45.816 14.319,45.540 13.781,44.989 C13.242,44.437 12.973,43.730 12.973,42.867 C12.973,42.192 13.110,41.634 13.386,41.194 C13.661,40.754 14.069,40.408 14.611,40.158 C15.152,39.908 15.931,39.731 16.948,39.629 L18.954,39.439 L18.954,39.014 C18.954,38.483 18.793,38.120 18.473,37.924 C18.152,37.728 17.683,37.630 17.066,37.630 C16.558,37.630 16.120,37.714 15.754,37.883 C15.388,38.052 15.118,38.293 14.942,38.607 L13.118,37.440 C13.439,36.903 13.941,36.491 14.625,36.205 C15.308,35.918 16.134,35.775 17.102,35.775 C18.584,35.775 19.654,36.033 20.310,36.549 C20.967,37.064 21.295,37.910 21.295,39.086 L21.295,45.536 L19.144,45.536 L19.144,44.550 ZM18.954,41.130 L17.765,41.239 C16.924,41.311 16.317,41.471 15.945,41.718 C15.573,41.966 15.387,42.337 15.387,42.831 C15.387,43.265 15.508,43.562 15.750,43.722 C15.992,43.882 16.313,43.962 16.712,43.962 C16.996,43.962 17.343,43.873 17.751,43.695 C18.159,43.517 18.560,43.265 18.954,42.940 L18.954,41.130 ZM34.900,45.536 L32.558,45.536 L32.558,36.047 L34.900,36.047 L34.900,45.536 Z"/><path class="cls-3" d="M49.000,15.899 L49.000,17.995 L35.187,17.995 C32.327,17.995 31.008,15.675 31.008,12.814 L31.008,-0.000 L33.100,-0.000 L49.000,15.899 Z"/></g></svg>