<?xml version="1.0" ?><svg height="64" preserveAspectRatio="xMidYMid" viewBox="0 0 49 64" width="49" xmlns="http://www.w3.org/2000/svg" xmlns:xlink="http://www.w3.org/1999/xlink"><defs><style>
      .cls-1 {
        fill: #ebc200;
      }

      .cls-1, .cls-2, .cls-3 {
        fill-rule: evenodd;
      }

      .cls-2 {
        fill: #fff;
      }

      .cls-3 {
        fill: #f8db54;
      }
    </style></defs><g><path class="cls-1" d="M49.000,16.842 L49.000,58.947 C49.000,61.738 46.730,64.000 43.931,64.000 L5.069,64.000 C2.269,64.000 -0.000,61.738 -0.000,58.947 L-0.000,5.053 C-0.000,2.262 2.269,-0.000 5.069,-0.000 L32.103,-0.000 L49.000,16.842 Z"/><path class="cls-2" d="M35.204,34.047 C34.768,33.903 34.347,33.830 33.942,33.830 C33.482,33.830 33.166,33.925 32.994,34.115 C32.821,34.305 32.735,34.641 32.735,35.124 L32.735,36.047 L34.668,36.047 L34.668,37.901 L32.735,37.901 L32.735,45.536 L30.394,45.536 L30.394,37.901 L29.187,37.901 L29.187,36.047 L30.394,36.047 L30.394,35.124 C30.394,33.948 30.685,33.098 31.269,32.573 C31.853,32.048 32.732,31.786 33.906,31.786 C34.456,31.786 35.040,31.861 35.657,32.012 L35.204,34.047 ZM26.727,34.644 C26.231,34.644 25.893,34.542 25.715,34.337 C25.536,34.132 25.447,33.839 25.447,33.459 C25.447,33.037 25.544,32.734 25.738,32.550 C25.931,32.366 26.261,32.274 26.727,32.274 C27.199,32.274 27.538,32.363 27.743,32.541 C27.949,32.719 28.052,33.025 28.052,33.459 C28.052,33.900 27.943,34.207 27.725,34.382 C27.507,34.557 27.175,34.644 26.727,34.644 ZM18.377,49.109 C16.955,49.109 15.712,48.838 14.647,48.295 L15.337,46.386 C16.323,46.844 17.337,47.074 18.377,47.074 C19.345,47.074 20.018,46.935 20.397,46.658 C20.775,46.380 20.964,45.913 20.964,45.255 L20.964,44.477 C20.189,45.183 19.254,45.536 18.159,45.536 C16.998,45.536 16.084,45.120 15.419,44.288 C14.753,43.455 14.420,42.258 14.420,40.696 C14.420,39.719 14.576,38.858 14.888,38.114 C15.199,37.369 15.656,36.793 16.258,36.386 C16.860,35.979 17.588,35.775 18.441,35.775 C18.943,35.775 19.445,35.885 19.947,36.105 C20.449,36.326 20.870,36.604 21.209,36.942 L21.517,36.047 L23.305,36.047 L23.305,45.355 C23.305,46.621 22.915,47.564 22.134,48.182 C21.354,48.800 20.102,49.109 18.377,49.109 ZM20.964,38.679 C20.322,38.112 19.624,37.829 18.867,37.829 C18.299,37.829 17.818,38.088 17.424,38.607 C17.031,39.125 16.834,39.810 16.834,40.660 C16.834,41.625 17.008,42.337 17.356,42.795 C17.704,43.253 18.156,43.482 18.713,43.482 C19.487,43.482 20.238,43.172 20.964,42.551 L20.964,38.679 ZM27.916,45.536 L25.574,45.536 L25.574,36.047 L27.916,36.047 L27.916,45.536 Z"/><path class="cls-3" d="M49.000,15.899 L49.000,17.995 L35.187,17.995 C32.327,17.995 31.008,15.675 31.008,12.814 L31.008,-0.000 L33.100,-0.000 L49.000,15.899 Z"/></g></svg>