<?xml version="1.0" ?><svg height="64" preserveAspectRatio="xMidYMid" viewBox="0 0 49 64" width="49" xmlns="http://www.w3.org/2000/svg" xmlns:xlink="http://www.w3.org/1999/xlink"><defs><style>
      .cls-1 {
        fill: #bbcacf;
      }

      .cls-1, .cls-2, .cls-3 {
        fill-rule: evenodd;
      }

      .cls-2 {
        fill: #fff;
      }

      .cls-3 {
        fill: #dfeaee;
      }
    </style></defs><g><path class="cls-1" d="M49.000,16.842 L49.000,58.947 C49.000,61.738 46.730,64.000 43.931,64.000 L5.069,64.000 C2.269,64.000 -0.000,61.738 -0.000,58.947 L-0.000,5.053 C-0.000,2.262 2.269,-0.000 5.069,-0.000 L32.103,-0.000 L49.000,16.842 Z"/><path class="cls-2" d="M38.088,45.536 L38.088,32.066 L40.430,32.066 L40.430,45.536 L38.088,45.536 ZM34.489,39.945 C34.489,39.385 34.456,38.947 34.389,38.634 C34.322,38.320 34.221,38.108 34.085,37.996 C33.949,37.884 33.723,37.829 33.409,37.829 C33.052,37.829 32.674,37.961 32.274,38.227 C31.875,38.492 31.503,38.818 31.158,39.204 L31.158,45.536 L28.817,45.536 L28.817,39.945 C28.817,39.330 28.790,38.886 28.735,38.611 C28.681,38.337 28.584,38.138 28.445,38.014 C28.305,37.891 28.070,37.829 27.737,37.829 C27.446,37.829 27.111,37.939 26.729,38.159 C26.348,38.379 25.934,38.727 25.486,39.204 L25.486,45.536 L23.145,45.536 L23.145,36.047 L25.486,36.047 L25.486,37.277 C25.922,36.806 26.379,36.439 26.857,36.173 C27.334,35.908 27.864,35.775 28.445,35.775 C29.237,35.775 29.823,35.911 30.201,36.182 C30.579,36.454 30.837,36.855 30.977,37.385 C31.521,36.843 32.031,36.439 32.506,36.173 C32.981,35.908 33.536,35.775 34.171,35.775 C35.097,35.775 35.771,36.038 36.195,36.562 C36.618,37.087 36.830,37.967 36.830,39.204 L36.830,45.536 L34.489,45.536 L34.489,39.945 ZM18.638,45.075 C18.153,44.580 17.912,43.778 17.912,42.668 L17.912,37.901 L16.705,37.901 L16.705,36.047 L17.912,36.047 L17.912,33.405 L20.253,33.405 L20.253,36.047 L22.467,36.047 L22.467,37.901 L20.253,37.901 L20.253,42.370 C20.253,42.961 20.345,43.362 20.530,43.573 C20.714,43.784 20.976,43.889 21.315,43.889 C21.744,43.889 22.171,43.802 22.594,43.627 L23.003,45.536 C22.373,45.723 21.711,45.816 21.015,45.816 C19.914,45.816 19.122,45.569 18.638,45.075 ZM14.130,40.307 C14.130,39.306 14.037,38.643 13.849,38.317 C13.661,37.991 13.329,37.829 12.851,37.829 C12.155,37.829 11.317,38.287 10.337,39.204 L10.337,45.536 L7.996,45.536 L7.996,32.066 L10.337,32.066 L10.337,37.277 C10.833,36.782 11.362,36.408 11.925,36.155 C12.488,35.902 13.038,35.775 13.577,35.775 C14.642,35.775 15.390,36.074 15.823,36.671 C16.255,37.268 16.472,38.112 16.472,39.204 L16.472,45.536 L14.130,45.536 L14.130,40.307 Z"/><path class="cls-3" d="M49.000,15.899 L49.000,17.995 L35.187,17.995 C32.327,17.995 31.008,15.675 31.008,12.814 L31.008,-0.000 L33.100,-0.000 L49.000,15.899 Z"/></g></svg>