<?xml version="1.0" ?><svg height="64" preserveAspectRatio="xMidYMid" viewBox="0 0 49 64" width="49" xmlns="http://www.w3.org/2000/svg" xmlns:xlink="http://www.w3.org/1999/xlink"><defs><style>
      .cls-1 {
        fill: #435055;
      }

      .cls-1, .cls-2, .cls-3 {
        fill-rule: evenodd;
      }

      .cls-2 {
        fill: #fff;
      }

      .cls-3 {
        fill: #8f9ca1;
      }
    </style></defs><g><path class="cls-1" d="M49.000,16.842 L49.000,58.947 C49.000,61.738 46.730,64.000 43.931,64.000 L5.069,64.000 C2.269,64.000 -0.000,61.738 -0.000,58.947 L-0.000,5.053 C-0.000,2.262 2.269,-0.000 5.069,-0.000 L32.103,-0.000 L49.000,16.842 Z"/><path class="cls-2" d="M39.896,43.464 L39.896,45.536 L37.446,45.536 L37.446,43.464 L31.139,43.464 L31.139,41.608 C31.073,42.262 30.961,42.880 30.747,43.419 C30.439,44.197 29.997,44.791 29.422,45.201 C28.847,45.611 28.161,45.816 27.362,45.816 C26.309,45.816 25.411,45.488 24.667,44.830 L24.667,49.109 L22.325,49.109 L22.325,36.047 L24.485,36.047 L24.485,36.978 C24.921,36.604 25.379,36.310 25.860,36.096 C26.341,35.882 26.893,35.775 27.516,35.775 C28.720,35.775 29.637,36.197 30.266,37.042 C30.895,37.886 31.210,39.113 31.210,40.723 C31.210,40.840 31.187,40.940 31.183,41.054 L37.274,33.016 L39.896,33.016 L39.896,41.275 L41.439,41.275 L41.439,43.464 L39.896,43.464 ZM28.315,38.602 C27.994,38.086 27.516,37.829 26.881,37.829 C26.500,37.829 26.108,37.918 25.706,38.095 C25.303,38.273 24.957,38.492 24.667,38.751 L24.667,42.903 C24.915,43.127 25.222,43.324 25.588,43.496 C25.954,43.668 26.330,43.754 26.718,43.754 C27.359,43.754 27.866,43.481 28.238,42.935 C28.610,42.389 28.796,41.664 28.796,40.760 C28.796,39.837 28.636,39.118 28.315,38.602 ZM37.446,36.363 L33.635,41.275 L37.446,41.275 L37.446,36.363 ZM18.911,39.945 C18.911,39.385 18.878,38.947 18.812,38.634 C18.745,38.320 18.644,38.108 18.508,37.996 C18.371,37.884 18.146,37.829 17.831,37.829 C17.474,37.829 17.096,37.961 16.697,38.227 C16.298,38.492 15.926,38.818 15.581,39.204 L15.581,45.536 L13.239,45.536 L13.239,39.945 C13.239,39.330 13.212,38.886 13.158,38.611 C13.103,38.337 13.006,38.138 12.867,38.014 C12.728,37.891 12.492,37.829 12.159,37.829 C11.869,37.829 11.533,37.939 11.152,38.159 C10.771,38.379 10.356,38.727 9.909,39.204 L9.909,45.536 L7.567,45.536 L7.567,36.047 L9.909,36.047 L9.909,37.277 C10.344,36.806 10.801,36.439 11.279,36.173 C11.757,35.908 12.286,35.775 12.867,35.775 C13.660,35.775 14.245,35.911 14.623,36.182 C15.001,36.454 15.260,36.855 15.399,37.385 C15.944,36.843 16.453,36.439 16.929,36.173 C17.403,35.908 17.959,35.775 18.594,35.775 C19.520,35.775 20.194,36.038 20.618,36.562 C21.041,37.087 21.253,37.967 21.253,39.204 L21.253,45.536 L18.911,45.536 L18.911,39.945 Z"/><path class="cls-3" d="M49.000,15.899 L49.000,17.995 L35.187,17.995 C32.327,17.995 31.008,15.675 31.008,12.814 L31.008,-0.000 L33.100,-0.000 L49.000,15.899 Z"/></g></svg>