<?xml version="1.0" ?><svg height="64" preserveAspectRatio="xMidYMid" viewBox="0 0 49 64" width="49" xmlns="http://www.w3.org/2000/svg" xmlns:xlink="http://www.w3.org/1999/xlink"><defs><style>
      .cls-1 {
        fill: #79ac00;
      }

      .cls-1, .cls-2, .cls-3 {
        fill-rule: evenodd;
      }

      .cls-2 {
        fill: #fff;
      }

      .cls-3 {
        fill: #b4e441;
      }
    </style></defs><g><path class="cls-1" d="M49.000,16.842 L49.000,58.947 C49.000,61.738 46.730,64.000 43.931,64.000 L5.069,64.000 C2.269,64.000 -0.000,61.738 -0.000,58.947 L-0.000,5.053 C-0.000,2.262 2.269,-0.000 5.069,-0.000 L32.103,-0.000 L49.000,16.842 Z"/><path class="cls-2" d="M31.614,37.684 C31.129,37.684 30.763,37.767 30.515,37.933 C30.267,38.099 30.143,38.311 30.143,38.570 C30.143,38.818 30.255,39.015 30.479,39.163 C30.703,39.311 31.145,39.466 31.804,39.629 C32.887,39.894 33.660,40.158 34.123,40.420 C34.586,40.683 34.937,41.008 35.176,41.397 C35.415,41.786 35.534,42.264 35.534,42.831 C35.534,43.458 35.375,43.995 35.058,44.441 C34.740,44.888 34.289,45.228 33.705,45.463 C33.121,45.699 32.454,45.816 31.704,45.816 C29.714,45.816 28.359,45.264 27.639,44.161 L29.381,42.940 C29.665,43.326 29.994,43.583 30.366,43.713 C30.738,43.843 31.136,43.908 31.559,43.908 C32.672,43.908 33.229,43.585 33.229,42.940 C33.229,42.656 33.072,42.438 32.757,42.284 C32.442,42.130 31.949,41.972 31.278,41.809 C30.013,41.532 29.124,41.139 28.610,40.633 C28.095,40.126 27.838,39.469 27.838,38.661 C27.838,37.823 28.160,37.132 28.805,36.589 C29.449,36.047 30.397,35.775 31.650,35.775 C32.503,35.775 33.255,35.911 33.905,36.182 C34.555,36.454 35.056,36.861 35.407,37.403 L33.656,38.643 C33.238,38.004 32.557,37.684 31.614,37.684 ZM23.282,32.066 L25.624,32.066 L25.624,45.536 L23.282,45.536 L23.282,32.066 ZM18.917,45.536 L17.030,42.514 L15.051,45.536 L12.456,45.536 L15.741,40.850 L12.510,36.047 L15.242,36.047 L17.138,39.050 L19.090,36.047 L21.676,36.047 L18.400,40.723 L21.694,45.536 L18.917,45.536 Z"/><path class="cls-3" d="M49.000,15.899 L49.000,17.995 L35.187,17.995 C32.327,17.995 31.008,15.675 31.008,12.814 L31.008,-0.000 L33.100,-0.000 L49.000,15.899 Z"/></g></svg>